<?xml version="1.0" standalone="no"?>
<!DOCTYPE svg PUBLIC "-//W3C//DTD SVG 1.1//EN" "http://www.w3.org/Graphics/SVG/1.1/DTD/svg11.dtd">
<svg xmlns="http://www.w3.org/2000/svg" xmlns:xlink="http://www.w3.org/1999/xlink" version="1.1" id="Layer_1" x="0px" y="0px" viewBox="0 0 390.9 254.3" style="enable-background:new 0 0 390.9 254.3;" xml:space="preserve" width="390.8999938964844" height="254.3000030517578">
<style type="text/css">
	.st0{fill:#1E4491;}
	.st1{fill:#EC2529;}
	.st2{fill:#214791;}
</style>
<g>
	<g transform="translate(46.359646, 248.647487)">
		<g>
			<path class="st0" d="M-9.8-40.8h-6.3l-2.3-7h-11.7l-2.3,7h-6.2l10.5-30.5h7.8L-9.8-40.8z M-24.6-65l-3.9,12.1h8.4L-24.1-65H-24.6     z"/>
		</g>
	</g>
</g>
<g>
	<g transform="translate(68.668113, 248.647487)">
		<g>
			<path class="st0" d="M-21.9-40.8h-5.9v-30.5h6.9l12.3,19.7l0.5-0.1v-19.6h5.8v30.5h-6.2l-13-21l-0.5,0.1V-40.8z"/>
		</g>
	</g>
</g>
<g>
	<g transform="translate(93.763178, 248.647487)">
		<g>
			<path class="st0" d="M-7.1-40.4c-4.2,0-7.3-1-9.4-3c-2-2-3-5-3-8.9v-19.1h5.9v19.1c0,2.2,0.5,3.9,1.6,5c1.1,1.1,2.7,1.7,4.9,1.7     c4.3,0,6.5-2.2,6.5-6.7v-19.1h5.9v19.1c0,3.9-1,6.9-3,8.9C0.2-41.4-2.9-40.4-7.1-40.4z"/>
		</g>
	</g>
</g>
<g>
	<g transform="translate(118.028511, 248.647487)">
		<g>
			<path class="st0" d="M-0.4-40.4c-2.6,0-4.8-0.6-6.6-1.7c-1.8-1.2-3.3-2.9-4.3-5.3c-1-2.3-1.5-5.2-1.5-8.7c0-3.5,0.6-6.4,1.8-8.7     c1.2-2.3,2.9-4.1,5-5.2c2.2-1.2,4.7-1.7,7.5-1.7c2.9,0,5.4,0.6,7.5,1.6c2.1,1.1,3.5,2.7,4.4,4.8l-4.4,2.7l-0.5,0     c-0.6-1.4-1.5-2.4-2.6-3c-1.1-0.6-2.6-0.9-4.2-0.9c-2.6,0-4.7,0.8-6,2.5c-1.4,1.7-2.1,4.3-2.1,8c0,3.7,0.6,6.4,1.9,8     c1.3,1.7,3.2,2.5,5.8,2.5C3.3-45.5,4.9-46,6-47c1.1-1,1.6-2.5,1.6-4.4v-1.3H0.3v-4.9h13.2v16.9H7.8v-4.1l-0.4-0.1     c-0.6,1.5-1.6,2.6-2.9,3.4C3.2-40.7,1.6-40.4-0.4-40.4z"/>
		</g>
	</g>
</g>
<g>
	<g transform="translate(141.902483, 248.647487)">
		<g>
			<path class="st0" d="M2.7-54.2v8.4h14.6v5.1H-3.3v-30.5H17v5.1H2.7v7.1h12.5v4.9H2.7z"/>
		</g>
	</g>
</g>
<g>
	<g transform="translate(161.5809, 248.647487)">
		<g>
			<path class="st0" d="M3.3-40.8v-30.5h12.3c3.2,0,5.5,0.7,7.1,2.2c1.6,1.5,2.4,3.5,2.4,6c0,1.9-0.5,3.4-1.4,4.6     c-0.9,1.2-2.3,2.1-4.2,2.7v0.4c1,0.4,1.8,1,2.3,1.9c0.6,0.8,1.2,2,1.7,3.6l3,9.1h-6.2l-3-9.1c-0.3-0.9-0.7-1.6-1-2.1     c-0.4-0.5-0.9-0.9-1.5-1.1c-0.6-0.2-1.3-0.4-2.3-0.4H9.3v12.7H3.3z M14.8-58.3c2.9,0,4.4-1.4,4.4-4.1c0-2.8-1.5-4.1-4.4-4.1H9.3     v8.2H14.8z"/>
		</g>
	</g>
</g>
<g>
	<g transform="translate(182.981373, 248.647487)">
		<g>
			<path class="st0" d="M35.7-40.8h-6.3l-2.3-7H15.4l-2.3,7H6.9l10.5-30.5h7.8L35.7-40.8z M20.9-65L17-52.9h8.4L21.5-65H20.9z"/>
		</g>
	</g>
</g>
<g>
	<g transform="translate(205.28984, 248.647487)">
		<g>
			<path class="st0" d="M37.6-59.8v-11.5h6v30.5h-6v-13.9H23.9v13.9h-6v-30.5h6v11.5H37.6z"/>
		</g>
	</g>
</g>
<g>
	<g transform="translate(230.541456, 248.647487)">
	</g>
</g>
<g>
	<g transform="translate(238.102862, 248.647487)">
		<g>
			<path class="st0" d="M54.1-40.8h-6.3l-2.3-7H33.8l-2.3,7h-6.2l10.5-30.5h7.8L54.1-40.8z M39.3-65l-3.9,12.1h8.4L39.8-65H39.3z"/>
		</g>
	</g>
</g>
<g>
	<g transform="translate(260.411329, 248.647487)">
		<g>
			<path class="st0" d="M48.4-40.4c-4.2,0-7.3-1-9.4-3c-2-2-3-5-3-8.9v-19.1h5.9v19.1c0,2.2,0.5,3.9,1.6,5c1.1,1.1,2.7,1.7,4.9,1.7     c4.3,0,6.5-2.2,6.5-6.7v-19.1h5.9v19.1c0,3.9-1,6.9-3,8.9C55.7-41.4,52.6-40.4,48.4-40.4z"/>
		</g>
	</g>
</g>
<g>
	<g transform="translate(284.676661, 248.647487)">
		<g>
			<path class="st0" d="M64.8-71.3v5.1H56v25.5h-6v-25.5h-8.8v-5.1H64.8z"/>
		</g>
	</g>
</g>
<g>
	<g transform="translate(303.650586, 248.647487)">
		<g>
			<path class="st0" d="M63.3-40.4c-2.8,0-5.3-0.6-7.4-1.7c-2.1-1.1-3.8-2.9-5-5.2c-1.2-2.3-1.8-5.3-1.8-8.8c0-3.5,0.6-6.4,1.8-8.8     c1.2-2.3,2.9-4.1,5-5.2c2.1-1.2,4.6-1.7,7.4-1.7c2.8,0,5.2,0.6,7.4,1.7c2.1,1.1,3.8,2.9,5,5.2c1.2,2.3,1.8,5.3,1.8,8.8     c0,3.5-0.6,6.4-1.8,8.8c-1.2,2.3-2.9,4.1-5,5.2C68.5-40.9,66.1-40.4,63.3-40.4z M63.3-45.6c2.6,0,4.6-0.8,5.9-2.5     c1.4-1.7,2.1-4.3,2.1-8c0-3.6-0.7-6.3-2.1-8c-1.4-1.7-3.3-2.5-5.9-2.5c-2.6,0-4.6,0.8-6,2.5c-1.4,1.7-2,4.3-2,8     c0,3.7,0.7,6.3,2,8C58.7-46.4,60.7-45.6,63.3-45.6z"/>
		</g>
	</g>
</g>
<g>
	<g transform="translate(68.288862, 275.712579)">
		<g>
			<path class="st0" d="M-25.2-31.6c-1.1,0-2.2-0.2-3.2-0.5c-1-0.4-1.8-0.8-2.4-1.4l0.6-1.2c0.5,0.6,1.3,1,2.2,1.3     c0.9,0.3,1.8,0.5,2.8,0.5c1.3,0,2.4-0.2,3-0.7c0.7-0.5,1-1.1,1-1.9c0-0.6-0.2-1.1-0.5-1.4c-0.4-0.4-0.8-0.6-1.4-0.8     c-0.5-0.2-1.3-0.4-2.2-0.6c-1.1-0.3-2.1-0.6-2.7-0.8c-0.7-0.3-1.2-0.7-1.7-1.2c-0.5-0.6-0.7-1.3-0.7-2.2c0-0.8,0.2-1.5,0.6-2.1     c0.4-0.6,1-1.1,1.9-1.5c0.8-0.4,1.9-0.6,3.1-0.6c0.9,0,1.7,0.1,2.5,0.4c0.8,0.2,1.5,0.6,2.1,1l-0.5,1.3c-0.6-0.4-1.3-0.7-2-0.9     c-0.7-0.2-1.4-0.3-2.1-0.3c-1.3,0-2.3,0.3-3,0.8c-0.7,0.5-1,1.2-1,2c0,0.6,0.2,1.1,0.5,1.5c0.4,0.4,0.8,0.6,1.4,0.8     c0.6,0.2,1.3,0.4,2.2,0.6c1.1,0.3,2,0.6,2.7,0.8c0.7,0.3,1.3,0.7,1.8,1.2c0.5,0.5,0.7,1.3,0.7,2.2c0,0.8-0.2,1.5-0.6,2.1     c-0.4,0.6-1,1.1-1.9,1.5C-22.9-31.8-24-31.6-25.2-31.6z"/>
		</g>
	</g>
</g>
<g>
	<g transform="translate(81.893456, 275.712579)">
		<g>
			<path class="st0" d="M-19.2-46.8c1.9,0,3.4,0.5,4.5,1.4c1.1,0.9,1.6,2.2,1.6,3.8c0,1.6-0.6,2.9-1.6,3.8c-1.1,0.9-2.6,1.4-4.5,1.4     h-4v4.8h-1.6v-15.1H-19.2z M-19.2-37.9c1.5,0,2.6-0.3,3.4-1c0.8-0.7,1.2-1.6,1.2-2.8c0-1.2-0.4-2.2-1.2-2.8c-0.8-0.7-1.9-1-3.4-1     h-4v7.5H-19.2z"/>
		</g>
	</g>
</g>
<g>
	<g transform="translate(97.160133, 275.712579)">
		<g>
			<path class="st0" d="M-9.1-33.1v1.4h-10.6v-15.1h10.3v1.4h-8.8v5.4h7.8v1.4h-7.8v5.6H-9.1z"/>
		</g>
	</g>
</g>
<g>
	<g transform="translate(111.636104, 275.712579)">
		<g>
			<path class="st0" d="M-10.7-31.6c-1.1,0-2.2-0.2-3.2-0.5c-1-0.4-1.8-0.8-2.4-1.4l0.6-1.2c0.5,0.6,1.3,1,2.2,1.3     c0.9,0.3,1.8,0.5,2.8,0.5c1.3,0,2.4-0.2,3-0.7c0.7-0.5,1-1.1,1-1.9c0-0.6-0.2-1.1-0.5-1.4c-0.4-0.4-0.8-0.6-1.4-0.8     c-0.5-0.2-1.3-0.4-2.2-0.6c-1.1-0.3-2.1-0.6-2.7-0.8c-0.7-0.3-1.2-0.7-1.7-1.2c-0.5-0.6-0.7-1.3-0.7-2.2c0-0.8,0.2-1.5,0.6-2.1     c0.4-0.6,1-1.1,1.9-1.5c0.8-0.4,1.9-0.6,3.1-0.6c0.9,0,1.7,0.1,2.5,0.4c0.8,0.2,1.5,0.6,2.1,1l-0.5,1.3c-0.6-0.4-1.3-0.7-2-0.9     c-0.7-0.2-1.4-0.3-2.1-0.3c-1.3,0-2.3,0.3-3,0.8c-0.7,0.5-1,1.2-1,2c0,0.6,0.2,1.1,0.5,1.5c0.4,0.4,0.8,0.6,1.4,0.8     c0.6,0.2,1.3,0.4,2.2,0.6c1.1,0.3,2,0.6,2.7,0.8c0.7,0.3,1.3,0.7,1.8,1.2c0.5,0.5,0.7,1.3,0.7,2.2c0,0.8-0.2,1.5-0.6,2.1     c-0.4,0.6-1,1.1-1.9,1.5C-8.5-31.8-9.5-31.6-10.7-31.6z"/>
		</g>
	</g>
</g>
<g>
	<g transform="translate(125.240697, 275.712579)">
		<g>
			<path class="st0" d="M-10.4-46.8h1.6v15.1h-1.6V-46.8z"/>
		</g>
	</g>
</g>
<g>
	<g transform="translate(133.794497, 275.712579)">
		<g>
			<path class="st0" d="M1.9-35.8h-8.4l-1.8,4h-1.7L-3-46.8h1.6l6.9,15.1H3.7L1.9-35.8z M1.3-37.1l-3.6-8.1l-3.6,8.1H1.3z"/>
		</g>
	</g>
</g>
<g>
	<g transform="translate(149.045035, 275.712579)">
		<g>
			<path class="st0" d="M-2.4-46.8h1.6v13.7h8.4v1.4h-10V-46.8z"/>
		</g>
	</g>
</g>
<g>
	<g transform="translate(162.230076, 275.712579)">
		<g>
			<path class="st0" d="M2-46.8h1.6v15.1H2V-46.8z"/>
		</g>
	</g>
</g>
<g>
	<g transform="translate(170.783881, 275.712579)">
		<g>
			<path class="st0" d="M9-31.6c-1.1,0-2.2-0.2-3.2-0.5c-1-0.4-1.8-0.8-2.4-1.4L4-34.8c0.5,0.6,1.3,1,2.2,1.3C7.1-33.2,8-33,9-33     c1.3,0,2.4-0.2,3-0.7c0.7-0.5,1-1.1,1-1.9c0-0.6-0.2-1.1-0.5-1.4c-0.4-0.4-0.8-0.6-1.4-0.8c-0.5-0.2-1.3-0.4-2.2-0.6     c-1.1-0.3-2.1-0.6-2.7-0.8c-0.7-0.3-1.2-0.7-1.7-1.2c-0.5-0.6-0.7-1.3-0.7-2.2c0-0.8,0.2-1.5,0.6-2.1c0.4-0.6,1-1.1,1.9-1.5     C7-46.8,8.1-47,9.3-47c0.9,0,1.7,0.1,2.5,0.4c0.8,0.2,1.5,0.6,2.1,1l-0.5,1.3c-0.6-0.4-1.3-0.7-2-0.9c-0.7-0.2-1.4-0.3-2.1-0.3     c-1.3,0-2.3,0.3-3,0.8c-0.7,0.5-1,1.2-1,2c0,0.6,0.2,1.1,0.5,1.5c0.4,0.4,0.8,0.6,1.4,0.8c0.6,0.2,1.3,0.4,2.2,0.6     c1.1,0.3,2,0.6,2.7,0.8c0.7,0.3,1.3,0.7,1.8,1.2c0.5,0.5,0.7,1.3,0.7,2.2c0,0.8-0.2,1.5-0.6,2.1c-0.4,0.6-1,1.1-1.9,1.5     C11.2-31.8,10.2-31.6,9-31.6z"/>
		</g>
	</g>
</g>
<g>
	<g transform="translate(184.388479, 275.712579)">
	</g>
</g>
<g>
	<g transform="translate(192.296815, 275.712579)">
		<g>
			<path class="st0" d="M16.7-38.9l-3.1,3.1v4H12v-15.1h1.6v9.1l8.9-9.1h1.8L17.7-40l7,8.2h-1.9L16.7-38.9z"/>
		</g>
	</g>
</g>
<g>
	<g transform="translate(207.450531, 275.712579)">
		<g>
			<path class="st0" d="M26.5-35.8h-8.4l-1.8,4h-1.7l6.9-15.1h1.6L30-31.8h-1.7L26.5-35.8z M25.9-37.1l-3.6-8.1l-3.6,8.1H25.9z"/>
		</g>
	</g>
</g>
<g>
	<g transform="translate(222.701076, 275.712579)">
		<g>
			<path class="st0" d="M26.8-38.9l-3.1,3.1v4h-1.6v-15.1h1.6v9.1l8.9-9.1h1.8L27.9-40l7,8.2h-1.9L26.8-38.9z"/>
		</g>
	</g>
</g>
<g>
	<g transform="translate(237.854792, 275.712579)">
		<g>
			<path class="st0" d="M27.2-46.8h1.6v15.1h-1.6V-46.8z"/>
		</g>
	</g>
</g>
<g>
	<g transform="translate(246.408598, 275.712579)">
		<g>
			<path class="st0" d="M28.9-38.3h5.6v1.3h-5.6V-38.3z"/>
		</g>
	</g>
</g>
<g>
	<g transform="translate(256.253343, 275.712579)">
		<g>
			<path class="st0" d="M38-38.9l-3.1,3.1v4h-1.6v-15.1h1.6v9.1l8.9-9.1h1.8L39.1-40l7,8.2h-1.9L38-38.9z"/>
		</g>
	</g>
</g>
<g>
	<g transform="translate(271.407059, 275.712579)">
		<g>
			<path class="st0" d="M47.8-35.8h-8.4l-1.8,4h-1.7l6.9-15.1h1.6l6.9,15.1h-1.7L47.8-35.8z M47.2-37.1l-3.6-8.1L40-37.1H47.2z"/>
		</g>
	</g>
</g>
<g>
	<g transform="translate(286.657592, 275.712579)">
		<g>
			<path class="st0" d="M48.1-38.9L45-35.7v4h-1.6v-15.1H45v9.1l8.9-9.1h1.8L49.2-40l7,8.2h-1.9L48.1-38.9z"/>
		</g>
	</g>
</g>
<g>
	<g transform="translate(301.811308, 275.712579)">
		<g>
			<path class="st0" d="M48.5-46.8h1.6v15.1h-1.6V-46.8z"/>
		</g>
	</g>
</g>
<path class="st1" d="M241.9,53.4c16.7,0.5,32.8,1,49.6,1.5c-8.4,14.4-16.5,28.3-25,42.8c-1.7-3.1-3.2-5.6-4.6-8.3  c-0.8-1.5-1.6-1.8-3.2-1c-16.5,8.1-32.6,16.8-47.6,27.6c-3.9,2.8-4.6,6.7-1.5,9.2c0.7,0.6,1.6,1.1,2.5,1.1  c5.6,0.2,11.2,0.2,16.8,0.3c0.3,0,0.6-0.2,1.5-0.4c-2.7-4.2-5.3-8.2-8.1-12.6c2.7-1.7,5.2-3.4,7.8-4.9c7-4,14.1-7.8,21.1-11.7  c1.5-0.8,2.4-1,3.5,0.7c11.7,17.8,23.5,35.5,35.2,53.2c0.4,0.5,0.6,1.1,1.1,2c-1,0.1-1.7,0.2-2.4,0.2c-21.2,0.3-42.3,0.7-63.5,0.7  c-11.9,0-23.9,0.1-35.6-2.8c-5.2-1.3-10-3.2-14-6.8c-8.2-7.4-9.4-17.9-3.3-27.7c5.4-8.6,12.9-15.1,21-21.1  c15.6-11.6,32.6-20.9,50-29.4c4.4-2.2,4.4-2.1,2.1-6.3C244.2,57.8,243.2,55.9,241.9,53.4z"/>
<path class="st2" d="M99.8,153.1c32.1-48.3,63.8-96.1,95.8-144.3c12.7,19.2,25.2,37.9,37.7,56.8c-10.4,6-20.6,11.9-31,17.9  c-1.8-2.7-3.6-5.5-5.4-8.2c-1.4-2.1-1.8-2.1-3.2,0c-11.2,16.9-22.4,33.8-33.6,50.7c-5.6,8.5-11.3,17-17,25.5  c-0.5,0.8-1.7,1.6-2.5,1.6C127.2,153.1,114,153.1,99.8,153.1z"/>
</svg>